<?xml version="1.0" encoding="iso-8859-1"?>
<!-- Generator: Adobe Illustrator 19.0.0, SVG Export Plug-In . SVG Version: 6.00 Build 0)  -->
<svg version="1.1" fill="	#00C5CD" id="Capa_1" xmlns="http://www.w3.org/2000/svg" xmlns:xlink="http://www.w3.org/1999/xlink" x="0px" y="0px"
	 viewBox="0 0 512.005 512.005" style="enable-background:new 0 0 512.005 512.005;" xml:space="preserve">
<g>
	<g>
		<g>
			<path  d="M484.33,225.151C469.294,113.63,375.849,29.318,263.375,25.79C259.22,9.17,243.362-1.774,226.349,0.238
				s-29.881,16.352-30.045,33.482C134.248,50.18,81.921,91.874,52.017,148.685c-29.904,56.812-34.651,123.55-13.09,184.022
				c-3.108,5.187-4.766,11.114-4.799,17.161c0.053,17.272,13.027,31.771,30.187,33.734
				c42.535,64.326,114.563,102.955,191.68,102.799c0.397,0,0.805-0.021,1.205-0.024c4.256,16.646,20.243,27.516,37.288,25.353
				c17.045-2.163,29.81-16.681,29.774-33.863c0-0.67-0.159-1.297-0.198-1.958C431.587,442.721,499.366,336.671,484.33,225.151z
				 M230.395,17.069c9.426,0,17.067,7.641,17.067,17.067s-7.641,17.067-17.067,17.067c-9.426,0-17.067-7.641-17.067-17.067
				C213.339,24.714,220.974,17.08,230.395,17.069z M68.856,153.322c27.941-50.91,75.511-88.157,131.636-103.071
				c4.482,8.325,12.222,14.413,21.369,16.806v95.078h-43.878c-4.297-16.643-20.299-27.494-37.35-25.328
				c-17.051,2.166-29.832,16.673-29.832,33.861s12.781,31.695,29.832,33.861c17.051,2.166,33.053-8.685,37.35-25.328h133.22
				c15.839-0.72,29.292,11.475,30.125,27.308v5.117c-0.833,15.833-14.286,28.028-30.125,27.308h-72.275v-34.133
				c0-4.713-3.82-8.533-8.533-8.533s-8.533,3.82-8.533,8.533v34.133h-18.278c-4.297-16.643-20.299-27.494-37.35-25.328
				S136.4,230.281,136.4,247.469s12.781,31.696,29.832,33.861c17.051,2.166,33.053-8.685,37.35-25.328h18.278v85.333H101.183
				c-3.868-15.032-17.4-25.555-32.922-25.6c-5.465,0.038-10.839,1.404-15.659,3.982C35.042,264.363,40.916,204.232,68.856,153.322z
				 M162.128,170.669c0,9.426-7.641,17.067-17.067,17.067s-17.067-7.641-17.067-17.067s7.641-17.067,17.067-17.067
				C154.483,153.613,162.117,161.248,162.128,170.669z M349.862,297.048v3.242c-1.26,23.807-21.493,42.136-45.308,41.046h-65.625
				v-85.333h65.625C328.368,254.912,348.602,273.241,349.862,297.048z M247.461,418.136c0,9.426-7.641,17.067-17.067,17.067
				c-9.426,0-17.067-7.641-17.067-17.067c0.011-9.421,7.646-17.056,17.067-17.067C239.82,401.069,247.461,408.71,247.461,418.136z
				 M187.728,247.469c0,9.426-7.641,17.067-17.067,17.067s-17.067-7.641-17.067-17.067c0-9.426,7.641-17.067,17.067-17.067
				C180.083,230.413,187.717,238.048,187.728,247.469z M68.261,366.936c-9.421-0.011-17.056-7.645-17.067-17.067
				c0-9.426,7.641-17.067,17.067-17.067s17.067,7.641,17.067,17.067S77.687,366.936,68.261,366.936z M257.215,469.311
				c-0.406,0.003-0.817,0.024-1.22,0.024c-68.658,0.153-133.148-32.919-173.09-88.764c9.06-4.338,15.747-12.449,18.278-22.17
				h120.678v26.812c-16.643,4.297-27.494,20.299-25.328,37.35c2.166,17.051,16.673,29.832,33.861,29.832
				c17.188,0,31.695-12.781,33.861-29.832c2.166-17.051-8.685-33.053-25.328-37.35v-26.812h42.667v86.545
				C269.657,448.058,260.333,457.376,257.215,469.311z M290.128,494.936c-9.426,0-17.067-7.641-17.067-17.067
				s7.641-17.067,17.067-17.067c9.426,0,17.067,7.641,17.067,17.067C307.184,487.29,299.549,494.925,290.128,494.936z
				 M318.894,459.662c-4.637-7.29-11.868-12.549-20.232-14.714v-86.545h5.892c33.241,1.095,61.119-24.877,62.375-58.112v-3.242
				c-0.283-20.286-11.278-38.907-28.903-48.954c12.542-7.908,20.212-21.641,20.37-36.467v-5.117
				c-0.829-25.262-21.926-45.1-47.192-44.375h-12.542v-26.812c16.643-4.297,27.494-20.299,25.328-37.35
				c-2.166-17.051-16.673-29.832-33.861-29.832c-17.188,0-31.695,12.781-33.861,29.832c-2.166,17.051,8.685,33.053,25.328,37.35
				v26.812h-42.667V67.057c11.878-3.097,21.172-12.343,24.331-24.204c114.854,4.025,205.925,98.225,206.069,213.149
				C469.193,349.507,408.227,432.043,318.894,459.662z M290.128,119.469c-9.426,0-17.067-7.641-17.067-17.067
				s7.641-17.067,17.067-17.067c9.426,0,17.067,7.641,17.067,17.067C307.184,111.824,299.549,119.458,290.128,119.469z"/>
			<path d="M155.812,115.94L155.812,115.94c1.699,0.001,3.36-0.509,4.767-1.462c9.133-6.169,18.842-11.438,28.992-15.733
				c2.807-1.188,4.768-3.783,5.143-6.809c0.375-3.025-0.893-6.021-3.325-7.858c-2.432-1.837-5.661-2.237-8.468-1.05
				c-11.166,4.722-21.847,10.519-31.892,17.308c-3.109,2.1-4.481,5.985-3.381,9.572C148.746,113.494,152.06,115.942,155.812,115.94z
				"/>
			<path d="M80.428,300.652c2.565,0.002,4.994-1.15,6.616-3.136s2.265-4.597,1.751-7.109c-4.622-22.705-4.622-46.108,0-68.813
				c2.249-10.976,5.579-21.702,9.941-32.021c1.836-4.34-0.193-9.347-4.533-11.183s-9.347,0.193-11.183,4.533
				c-4.802,11.36-8.468,23.168-10.942,35.25c-5.089,24.963-5.089,50.696,0,75.658C72.889,297.799,76.378,300.649,80.428,300.652z"/>
			<path d="M174.654,406.077L174.654,406.077c-4.825-2.62-9.559-5.499-14.075-8.55c-4.542-3.071-8.967-6.379-13.141-9.829
				c-4.158-3.429-8.242-7.138-12.125-11.021c-3.34-3.3-8.718-3.283-12.036,0.038s-3.332,8.699-0.03,12.036
				c4.275,4.267,8.758,8.342,13.325,12.108c4.592,3.796,9.458,7.433,14.458,10.808c4.966,3.358,10.175,6.521,15.475,9.4
				c2.678,1.456,5.929,1.372,8.529-0.219c2.6-1.591,4.153-4.449,4.075-7.496C179.029,410.306,177.332,407.532,174.654,406.077z"/>
			<path d="M360.962,100.336c-3.904-2.611-9.185-1.575-11.814,2.317c-2.629,3.893-1.617,9.178,2.264,11.824
				c9.066,6.129,17.527,13.11,25.267,20.846c15.568,15.562,27.987,33.982,36.575,54.25c4.363,10.321,7.693,21.048,9.941,32.025
				c4.622,22.705,4.622,46.108,0,68.813c-4.47,21.826-13.197,42.557-25.683,61.008c-18.519,27.446-44.604,48.928-75.092,61.842
				c-2.807,1.188-4.768,3.783-5.143,6.809s0.892,6.021,3.325,7.858c2.432,1.837,5.661,2.238,8.468,1.05
				c63.442-26.844,107.097-86.265,113.751-154.83C449.474,205.582,418.058,138.877,360.962,100.336z"/>
		</g>
	</g>
</g>
<g>
</g>
<g>
</g>
<g>
</g>
<g>
</g>
<g>
</g>
<g>
</g>
<g>
</g>
<g>
</g>
<g>
</g>
<g>
</g>
<g>
</g>
<g>
</g>
<g>
</g>
<g>
</g>
<g>
</g>
</svg>
