<?xml version="1.0" encoding="iso-8859-1"?>
<!-- Generator: Adobe Illustrator 18.1.1, SVG Export Plug-In . SVG Version: 6.00 Build 0)  -->
<svg fill="	#00C5CD" version="1.1" id="Capa_1" xmlns="http://www.w3.org/2000/svg" xmlns:xlink="http://www.w3.org/1999/xlink" x="0px" y="0px"
	 viewBox="0 0 289.667 289.667" style="enable-background:new 0 0 289.667 289.667;" xml:space="preserve">
<g>
	<path id="path7003" d="M284.905,0.001c-0.406-0.006-0.811,0.04-1.205,0.139L227.132,14.28c-2.501,0.625-4.021,3.159-3.396,5.66
		c0.205,0.821,0.63,1.57,1.228,2.168l17.678,17.678l-97.809,97.809L47.024,39.786l17.678-17.678c1.823-1.823,1.823-4.778,0-6.6
		c-0.598-0.598-1.348-1.023-2.168-1.228L5.964,0.139C5.662,0.064,5.353,0.019,5.042,0.005C2.467-0.11,0.286,1.884,0.171,4.459
		c-0.02,0.45,0.025,0.901,0.134,1.339l14.143,56.568c0.626,2.5,3.161,4.02,5.661,3.394c0.819-0.205,1.568-0.629,2.165-1.226
		l17.678-17.678l99.881,99.881v73.293c-16.918,2.441-30,17.064-30,34.637c0,19.271,15.729,35,35,35s35-15.729,35-35
		c0-17.573-13.082-32.196-30-34.637v-73.293l99.881-99.881l17.678,17.678c1.823,1.822,4.778,1.821,6.6-0.003
		c0.597-0.598,1.021-1.346,1.226-2.165L289.36,5.798c0.624-2.501-0.897-5.034-3.398-5.659
		C285.616,0.053,285.262,0.006,284.905,0.001z M11.247,11.081l41.027,10.256l-30.771,30.77L11.247,11.081z M278.419,11.081
		l-10.256,41.025l-30.771-30.77L278.419,11.081z M21.872,19.13c-1.379-0.061-2.547,1.007-2.609,2.387
		c-0.054,1.221,0.782,2.302,1.978,2.556l18.385,4.242c1.338,0.34,2.699-0.469,3.039-1.808c0.34-1.338-0.469-2.699-1.808-3.039
		c-0.035-0.009-0.07-0.017-0.106-0.024L22.366,19.2C22.204,19.16,22.039,19.137,21.872,19.13z M267.97,19.13
		c-0.225-0.007-0.451,0.017-0.67,0.07l-18.385,4.244c-1.352,0.281-2.22,1.605-1.938,2.957c0.281,1.352,1.605,2.22,2.957,1.938
		c0.035-0.007,0.071-0.016,0.106-0.024l18.385-4.242c1.35-0.291,2.208-1.621,1.917-2.971C270.1,19.977,269.12,19.163,267.97,19.13z
		 M144.833,229.667c13.866,0,25,11.134,25,25c0,13.866-11.134,25-25,25s-25-11.134-25-25
		C119.833,240.8,130.967,229.667,144.833,229.667z M144.833,237.167c-9.635,0-17.5,7.865-17.5,17.5
		c-0.02,1.381,1.084,2.516,2.465,2.535c1.381,0.02,2.516-1.084,2.535-2.465c0-0.024,0-0.047,0-0.071c0-6.933,5.567-12.5,12.5-12.5
		c1.381,0.02,2.516-1.084,2.535-2.465c0.02-1.381-1.084-2.516-2.465-2.535C144.88,237.167,144.856,237.167,144.833,237.167z"/>
</g>
<g>
</g>
<g>
</g>
<g>
</g>
<g>
</g>
<g>
</g>
<g>
</g>
<g>
</g>
<g>
</g>
<g>
</g>
<g>
</g>
<g>
</g>
<g>
</g>
<g>
</g>
<g>
</g>
<g>
</g>
</svg>
