<?xml version="1.0" encoding="iso-8859-1"?>
<!-- Generator: Adobe Illustrator 19.0.0, SVG Export Plug-In . SVG Version: 6.00 Build 0)  -->
<svg fill="	#00C5CD" version="1.1" id="Capa_1" xmlns="http://www.w3.org/2000/svg" xmlns:xlink="http://www.w3.org/1999/xlink" x="0px" y="0px"
	 viewBox="0 0 512 512" style="enable-background:new 0 0 512 512;" xml:space="preserve">
<g>
	<g>
		<g>
			<path d="M122.883,135.508c0-4.713-3.821-8.533-8.533-8.533s-8.533,3.821-8.533,8.533c1.182,16.728,14.067,30.265,30.717,32.268
				v4.598c0,4.713,3.82,8.533,8.533,8.533s8.533-3.82,8.533-8.533v-4.598c16.649-2.004,29.535-15.54,30.717-32.268
				c-1.181-16.728-14.067-30.265-30.717-32.268V71.599c7.248,1.476,12.743,7.418,13.65,14.759c0,4.713,3.82,8.533,8.533,8.533
				s8.533-3.82,8.533-8.533C183.135,69.63,170.249,56.094,153.6,54.09v-4.598c0-4.713-3.821-8.533-8.533-8.533
				s-8.533,3.82-8.533,8.533v4.598c-16.649,2.004-29.535,15.54-30.717,32.268c1.182,16.728,14.067,30.265,30.717,32.268v31.641
				C129.285,148.791,123.79,142.849,122.883,135.508z M153.6,120.749c7.248,1.476,12.743,7.418,13.65,14.759
				c-0.907,7.341-6.402,13.283-13.65,14.759V120.749z M122.883,86.358L122.883,86.358c0.907-7.341,6.402-13.283,13.65-14.759v29.519
				C129.285,99.641,123.79,93.699,122.883,86.358z"/>
			<path d="M366.933,119.466C305.667,119.466,256,169.133,256,230.4c0.069,61.238,49.695,110.864,110.933,110.933
				c61.267,0,110.933-49.667,110.933-110.933S428.2,119.466,366.933,119.466z M366.933,324.266
				c-51.841,0-93.867-42.026-93.867-93.867c0.059-51.817,42.05-93.808,93.867-93.867c51.841,0,93.867,42.026,93.867,93.867
				S418.774,324.266,366.933,324.266z"/>
			<path d="M469.333,76.8h-218.78C235.762,30.965,193.064-0.073,144.901,0C96.738,0.074,54.135,31.241,39.484,77.122
				C17.276,78.744,0.068,97.2,0,119.466v281.6c0.028,23.553,19.114,42.639,42.667,42.667H179.2V460.8h-59.733
				c-2.263-0.001-4.434,0.898-6.035,2.499c-1.6,1.6-2.499,3.771-2.499,6.035v34.133c-0.001,2.263,0.898,4.434,2.499,6.035
				c1.6,1.6,3.771,2.499,6.035,2.499h273.067c2.263,0.001,4.434-0.898,6.035-2.499c1.6-1.6,2.499-3.771,2.499-6.035v-34.133
				c0.001-2.263-0.898-4.434-2.499-6.035c-1.6-1.6-3.771-2.499-6.035-2.499H332.8v-17.067h136.533
				c23.553-0.028,42.639-19.114,42.667-42.667v-281.6C511.972,95.914,492.886,76.827,469.333,76.8z M54.167,87.483v-0.013
				l0.009-0.017c10.67-41.465,48.076-70.432,90.891-70.388c42.816-0.045,80.222,28.923,90.892,70.388l0.009,0.018v0.011
				c9.787,37.999-5.094,78.075-37.31,100.477s-74.966,22.402-107.181,0S44.38,125.482,54.167,87.483z M384,477.866v17.067H128
				v-17.067H384z M196.267,460.8v-17.067h119.467V460.8H196.267z M494.933,401.066c-0.015,14.132-11.468,25.585-25.6,25.6H42.667
				c-14.132-0.015-25.585-11.468-25.6-25.6v-25.6h477.867V401.066z M494.933,358.4H17.067V119.466
				c0.014-11.288,7.406-21.239,18.208-24.513c-5.982,41.117,11.512,82.129,45.33,106.269c33.818,24.14,78.289,27.359,115.231,8.342
				c36.942-19.017,60.161-57.082,60.164-98.632c0.001-5.714-0.437-11.42-1.308-17.067h214.642c14.132,0.015,25.585,11.468,25.6,25.6
				V358.4z"/>
			<path d="M403.263,227.906c4.06-4.909,6.299-11.07,6.338-17.44v-2.8c-0.244-14.474-11.211-26.51-25.6-28.094v-8.906
				c0-4.713-3.82-8.533-8.533-8.533s-8.533,3.82-8.533,8.533v8.533h-17.067v-8.533c0-4.713-3.82-8.533-8.533-8.533
				s-8.533,3.82-8.533,8.533v8.533h-8.533c-4.713,0-8.533,3.82-8.533,8.533s3.82,8.533,8.533,8.533h55.925
				c6.55-0.244,12.066,4.851,12.342,11.4v2.8c-0.276,6.549-5.792,11.644-12.342,11.4h-30.325c0-4.713-3.82-8.533-8.533-8.533
				s-8.533,3.82-8.533,8.533V256c0,4.713,3.821,8.533,8.533,8.533s8.533-3.82,8.533-8.533v-17.067h33.6
				c9.346-0.342,17.211,6.931,17.6,16.275v1.583c-0.389,9.344-8.254,16.617-17.6,16.275h-59.2c-4.713,0-8.533,3.821-8.533,8.533
				s3.82,8.533,8.533,8.533h8.533v8.533c0,4.713,3.821,8.533,8.533,8.533s8.533-3.82,8.533-8.533v-8.533h17.067v8.533
				c0,4.713,3.82,8.533,8.533,8.533s8.533-3.82,8.533-8.533v-8.585c18.553,0.072,33.741-14.74,34.133-33.29v-1.583
				C418.052,244.194,412.472,233.949,403.263,227.906z"/>
			<path d="M229.117,268.254c-3.332-3.332-8.735-3.332-12.067,0c-3.332,3.332-3.332,8.734,0,12.067l9.817,9.813h-3.783
				c-28.936-0.035-52.384-23.485-52.417-52.421c0-4.713-3.82-8.533-8.533-8.533s-8.533,3.82-8.533,8.533
				c0.041,38.358,31.125,69.445,69.483,69.488h5.002l-11.035,11.034c-2.178,2.151-3.037,5.304-2.251,8.262
				c0.786,2.958,3.097,5.269,6.055,6.055s6.111-0.073,8.262-2.251l24.383-24.379c3.259-3.83,3.259-9.458,0-13.288L229.117,268.254z"
				/>
		</g>
	</g>
</g>
<g>
</g>
<g>
</g>
<g>
</g>
<g>
</g>
<g>
</g>
<g>
</g>
<g>
</g>
<g>
</g>
<g>
</g>
<g>
</g>
<g>
</g>
<g>
</g>
<g>
</g>
<g>
</g>
<g>
</g>
</svg>
