<?xml version='1.0' encoding='iso-8859-1'?>
<svg fill="	#00C5CD" version="1.1" xmlns="http://www.w3.org/2000/svg" viewBox="0 0 511 511" xmlns:xlink="http://www.w3.org/1999/xlink" enable-background="new 0 0 511 511">
  <g>
    <path d="m255,176c-52.659,0-95.5,42.841-95.5,95.5 0,41.625 26.772,77.11 64,90.155v13.845c0,14.785 10.241,27.216 24,30.591v1.409c0,4.142 3.358,7.5 7.5,7.5s7.5-3.358 7.5-7.5v-1.409c13.759-3.374 24-15.806 24-30.591v-13.845c37.228-13.045 64-48.53 64-90.155 0-52.659-42.841-95.5-95.5-95.5zm16.5,199.5c0,9.098-7.402,16.5-16.5,16.5s-16.5-7.402-16.5-16.5v-9.931c5.362,0.938 10.874,1.431 16.5,1.431s11.138-0.493 16.5-1.431v9.931zm-16.5-23.5c-44.388,0-80.5-36.112-80.5-80.5s36.112-80.5 80.5-80.5 80.5,36.112 80.5,80.5-36.112,80.5-80.5,80.5z"/>
    <path d="m279,264h-33.986l24.227-36.34c2.298-3.446 1.367-8.103-2.08-10.4s-8.104-1.367-10.4,2.08l-32,48c-1.534,2.301-1.677,5.26-0.373,7.699 1.305,2.438 3.847,3.961 6.613,3.961h33.986l-24.227,36.34c-2.298,3.446-1.367,8.103 2.08,10.4 1.279,0.853 2.724,1.261 4.153,1.261 2.423,0 4.802-1.173 6.247-3.341l32-48c1.534-2.301 1.677-5.26 0.373-7.699-1.305-2.439-3.847-3.961-6.613-3.961z"/>
    <path d="M471.5,71.5c0-10.721-7.219-19.781-17.049-22.592l-10.882-25.113C437.305,9.34,423.078,0,407.325,0H102.675   c-15.753,0-29.98,9.34-36.244,23.795l-11.04,25.476C46.158,52.441,39.5,61.205,39.5,71.5c0,10.511,6.937,19.431,16.472,22.426   l29.277,380.604C86.823,494.98,104.122,511,124.633,511h260.734c20.511,0,37.811-16.02,39.383-36.471l29.255-380.31   C464.063,91.558,471.5,82.383,471.5,71.5z M409.794,473.379C408.819,486.063,398.089,496,385.367,496H124.633   c-12.722,0-23.452-9.937-24.428-22.621L71.099,95h367.802L409.794,473.379z M448,80H63c-4.687,0-8.5-3.813-8.5-8.5S58.313,63,63,63   h271c4.142,0,7.5-3.358,7.5-7.5S338.142,48,334,48H72.291l7.905-18.241C84.08,20.793,92.904,15,102.675,15h304.649   c9.771,0,18.595,5.793,22.48,14.759L437.709,48H415c-4.142,0-7.5,3.358-7.5,7.5s3.358,7.5,7.5,7.5h33c4.687,0,8.5,3.813,8.5,8.5   S452.687,80,448,80z"/>
    <path d="M383,48h-16c-4.142,0-7.5,3.358-7.5,7.5s3.358,7.5,7.5,7.5h16c4.142,0,7.5-3.358,7.5-7.5S387.142,48,383,48z"/>
  </g>
</svg>
