<svg xmlns="http://www.w3.org/2000/svg" xmlns:xlink="http://www.w3.org/1999/xlink" viewBox="3137 4598 1680 1222"><defs><style>.a{clip-path:url(#c);}.b{clip-path:url(#a);}.c,.d{fill:none;stroke:#95989a;stroke-miterlimit:10;stroke-width:3px;}.c{opacity:0.68;}.e{fill:#95989a;font-size:46px;font-family:SegoeUI, Segoe UI;}.f{fill:#5849b3;}.g{fill:#586cb3;}.h{fill:#1d8dd1;}.i{fill:#00acdf;}.j{fill:#00cadf;}.k{fill:#2ce6d4;}</style><clipPath id="a"><rect width="1680" height="1222"/></clipPath><clipPath id="c"><rect x="3137" y="4598" width="1680" height="1222"/></clipPath><filter id="f1" x="0" y="0" width="200%" height="200%">
      <feOffset result="offOut" in="SourceGraphic" dx="0" dy="0" />
      <feGaussianBlur result="blurOut" in="offOut" stdDeviation="10" />
      <feBlend in="SourceGraphic" in2="blurOut" mode="normal" />
    </filter></defs><g id="b" class="a"><g transform="translate(3137 4598)"><g class="b"><g transform="translate(3137.479 4604.197)"><path class="c" d="M-2301.3-4534s109.6,142.1,106.1,212.3"/><path class="d" d="M-2439.1-4411.6s106.1,29.1,130.1,118.1"/><path class="d" d="M-2589.7-4286.7s99.3-12,150.6,61.6"/><path class="d" d="M-2725-4129.2s121.5-1.7,166,37.7"/><g transform="translate(544.711 -6.197)"><text class="e" transform="translate(-3137 -4548)"><tspan x="0" y="0">Philanthropy</tspan></text><text class="e" transform="translate(-3035.489 -4490.483)"><tspan x="0" y="0">3%</tspan></text></g><g transform="translate(530.571 115.341)"><text class="e" transform="translate(-3137 -4548)"><tspan x="0" y="0">Bounty</tspan></text><text class="e" transform="translate(-3094.889 -4490.483)"><tspan x="0" y="0">4%</tspan></text></g><g transform="translate(329.87 680.24)"><text class="e" transform="translate(-3100.996 -4516.22)"><tspan x="0" y="0">Team</tspan></text><text class="e" transform="translate(-3088.5 -4458.703)"><tspan x="0" y="0">9%</tspan></text></g><g transform="translate(-0.479 408.062)"><text class="e" transform="translate(-2929.504 -4724.205)"><tspan x="0" y="0">Advisors, Partners</tspan></text><text class="e" transform="translate(-2786.91 -4666.688)"><tspan x="0" y="0">7%</tspan></text></g><g transform="translate(443.025 1026.026)"><text class="e" transform="translate(-3326.019 -5183.974)"><tspan x="0" y="0">Swault</tspan></text><text class="e" transform="translate(-3301.711 -5126.457)"><tspan x="0" y="0">8%</tspan></text></g><g transform="translate(1464.739 870.251)"><text class="e" transform="translate(-3137 -4548)"><tspan x="0" y="0">Crowdsale</tspan></text><text class="e" transform="translate(-3073.149 -4490.483)"><tspan x="0" y="0">69%</tspan></text></g></g></g><g class="pie" filter="url(#f1)"><path class="f" d="M988.5,497.9V288a435.514,435.514,0,0,0-87.5,8.5l39.6,205.8A261.008,261.008,0,0,1,988.5,497.9Z"/><path class="g" d="M940.7,502.3,901,296.5a450.819,450.819,0,0,0-113.5,38.3l90.7,187.6A258.058,258.058,0,0,1,940.7,502.3Z"/><path class="h" d="M878.2,522.4,787.5,334.8c-63.7,31.4-110.7,69-155.3,124.6L791.1,589.2A258.958,258.958,0,0,1,878.2,522.4Z"/><path class="i" d="M791.1,589.3,632.2,459.5c-51,63.5-81.1,130.2-95.2,210.7l199.2,35.4A250.553,250.553,0,0,1,791.1,589.3Z"/><path class="j" d="M732.2,750.5a255.9,255.9,0,0,1,4-44.9L537,670.2c-15.8,90.6-7.7,168.3,26.4,253.6l188.2-76.7A249.025,249.025,0,0,1,732.2,750.5Z"/><path class="k" d="M988.5,288V497.8c141.6,0,256.3,113.1,256.3,252.6S1130,1003,988.5,1003c-106.9,0-198.4-64.5-236.9-156.1L563.4,923.6c72.1,180,232.6,289.2,425.1,289.2,253.2,0,458.5-207.1,458.5-462.5S1241.7,288,988.5,288Z"/></g></g></g></svg>